<svg version="1.1" xmlns="http://www.w3.org/2000/svg" style="display: block;" viewBox="0 0 2048 2048" width="512" height="512">
<path transform="translate(0,0)" fill="rgb(0,0,0)" fill-opacity="0.027451" d="M 0 3.66862 C 2.83888 15.9637 1.02628 32.0872 1.01385 44.7859 L 1.00367 122.694 L 1.01185 444.875 L 1.0125 1758.92 L 1.00361 1963.33 C 1.00271 1978.2 3.00708 2032.24 0 2042.33 L 0 3.66862 z"/>
<path transform="translate(0,0)" fill="rgb(0,0,0)" fill-opacity="0.0196078" d="M 5.23633 2048 C 13.5498 2045.11 102.561 2046.97 118.796 2046.97 L 435.392 2046.98 L 1632.32 2047.01 L 1927.75 2047.01 L 2004.08 2046.94 C 2017.14 2046.92 2032.47 2045.38 2045.17 2048 L 5.23633 2048 z"/>
<path transform="translate(0,0)" fill="rgb(0,0,0)" fill-opacity="0.027451" d="M 2.70632 0 L 2045.29 0 C 2032.81 2.66018 2017.84 1.27815 2005.06 1.2652 L 1937.15 1.18905 L 1663.97 1.18748 L 590.64 1.1995 L 162.919 1.17049 L 60.5648 1.24347 C 43.0459 1.29899 19.6737 3.55439 2.70632 0 z"/>
</svg>